<svg width="840" height="100" viewBox="0 0 840 100" fill="none" xmlns="http://www.w3.org/2000/svg">
<path d="M828.72 91.6H809.115L784.886 57.8154L780.693 62.8V91.6H765.651V5.44615H780.693V39.4769L809.238 5.44615H828.905L794.688 46.0616L828.72 91.6Z" fill="black"/>
<path d="M720.109 93.2001C714.272 93.2001 708.785 92.0514 703.648 89.7539C698.51 87.4155 693.989 84.1949 690.085 80.0924C686.221 75.9898 683.18 71.2513 680.96 65.877C678.782 60.4616 677.693 54.677 677.693 48.5231C677.693 42.3282 678.782 36.5436 680.96 31.1693C683.18 25.7539 686.221 21.0154 690.085 16.9539C693.989 12.8513 698.51 9.6513 703.648 7.35386C708.785 5.01539 714.272 3.84616 720.109 3.84616C727.096 3.84616 733.528 5.46667 739.406 8.7077C745.283 11.9077 750.153 16.1949 754.017 21.5693L740.577 28.7693C738.152 25.7744 735.131 23.3744 731.514 21.5693C727.938 19.7641 724.137 18.8616 720.109 18.8616C716.327 18.8616 712.772 19.641 709.443 21.2C706.114 22.718 703.196 24.8513 700.689 27.6C698.181 30.3077 696.229 33.4667 694.832 37.077C693.434 40.6462 692.736 44.4616 692.736 48.5231C692.736 52.6257 693.434 56.4616 694.832 60.0308C696.27 63.6001 698.243 66.759 700.75 69.5078C703.257 72.2154 706.155 74.3488 709.443 75.9078C712.772 77.4257 716.327 78.1847 720.109 78.1847C724.219 78.1847 728.041 77.2821 731.576 75.477C735.152 73.6308 738.152 71.2103 740.577 68.2154L754.017 75.477C750.153 80.8103 745.283 85.0975 739.406 88.3385C733.528 91.5796 727.096 93.2001 720.109 93.2001Z" fill="black"/>
<path d="M629.539 5.44615H646.863L678.243 91.6H662.275L656.727 76.3385H619.736L614.187 91.6H598.22L629.539 5.44615ZM625.223 61.3231H651.178L638.17 25.8154L625.223 61.3231Z" fill="black"/>
<path d="M521.936 91.6V5.44615H538.212L574.648 64.4616V5.44615H589.691V91.6H573.477L536.979 32.5846V91.6H521.936Z" fill="black"/>
<path d="M475.705 93.2001C470.937 93.2001 466.354 92.4616 461.956 90.9847C457.6 89.4667 453.777 87.3129 450.489 84.5231C447.201 81.6924 444.838 78.3078 443.399 74.3693L457.518 69.2001C458.093 70.8411 459.264 72.3385 461.032 73.6924C462.799 75.0462 464.957 76.1334 467.505 76.9539C470.053 77.7744 472.787 78.1847 475.705 78.1847C478.705 78.1847 481.5 77.7334 484.089 76.8308C486.72 75.8872 488.837 74.5949 490.439 72.9539C492.042 71.2719 492.844 69.3231 492.844 67.1077C492.844 64.8513 492.001 63.0052 490.316 61.5693C488.631 60.0924 486.473 58.9231 483.843 58.0616C481.212 57.2 478.5 56.5436 475.705 56.0924C469.581 55.1488 464.094 53.6924 459.244 51.7231C454.394 49.7539 450.551 47.0257 447.715 43.5385C444.92 40.0513 443.523 35.5385 443.523 30C443.523 24.7898 445.023 20.2359 448.023 16.3385C451.024 12.441 454.969 9.40515 459.86 7.23079C464.751 5.05643 470.033 3.96925 475.705 3.96925C480.431 3.96925 484.994 4.70772 489.391 6.18464C493.789 7.66156 497.632 9.8154 500.92 12.6462C504.249 15.4769 506.633 18.8821 508.072 22.8616L493.892 27.9693C493.317 26.3282 492.145 24.8308 490.378 23.477C488.61 22.1231 486.453 21.0564 483.904 20.277C481.356 19.4564 478.623 19.0462 475.705 19.0462C472.787 19.0052 470.012 19.477 467.382 20.4616C464.792 21.4052 462.676 22.6975 461.032 24.3385C459.388 25.9795 458.566 27.8667 458.566 30C458.566 32.7488 459.326 34.8206 460.847 36.2154C462.409 37.6103 464.484 38.6359 467.074 39.2923C469.663 39.9077 472.54 40.4821 475.705 41.0154C481.459 41.918 486.781 43.4359 491.672 45.5693C496.563 47.7026 500.489 50.5539 503.448 54.1231C506.407 57.6513 507.887 61.9795 507.887 67.1077C507.887 72.318 506.407 76.8924 503.448 80.8308C500.489 84.7283 496.563 87.7642 491.672 89.9385C486.781 92.1129 481.459 93.2001 475.705 93.2001Z" fill="black"/>
<path d="M362.029 91.6V5.44615H378.305L414.741 64.4616V5.44615H429.784V91.6H413.57L377.072 32.5846V91.6H362.029Z" fill="#768B9B"/>
<path d="M308.297 93.2001C302.296 93.2001 296.707 92.0308 291.528 89.6924C286.39 87.3539 281.91 84.1334 278.088 80.0308C274.266 75.8872 271.265 71.1283 269.087 65.7539C266.95 60.3385 265.881 54.5539 265.881 48.4C265.881 41.918 267.032 35.9693 269.334 30.5539C271.676 25.1385 274.862 20.4411 278.889 16.4616C282.917 12.4821 287.48 9.40515 292.576 7.23079C297.714 5.05643 303.057 3.96925 308.605 3.96925C314.812 3.96925 320.833 5.42566 326.669 8.33849C332.547 11.2103 337.725 15.6616 342.205 21.6923L328.765 28.8923C326.012 25.5282 322.847 23.0257 319.271 21.3846C315.736 19.7026 312.119 18.8616 308.42 18.8616C304.804 18.8616 301.331 19.6 298.001 21.077C294.713 22.5539 291.775 24.6462 289.185 27.3539C286.637 30.0205 284.623 33.1795 283.143 36.8308C281.664 40.4411 280.924 44.4 280.924 48.7077C280.924 52.7693 281.643 56.6052 283.082 60.2154C284.52 63.7847 286.493 66.9231 289 69.6308C291.549 72.2975 294.487 74.3898 297.816 75.9078C301.146 77.4257 304.721 78.1847 308.544 78.1847C311.092 78.1847 313.579 77.7949 316.004 77.0154C318.47 76.1949 320.771 75.0257 322.908 73.5077C325.087 71.9898 327.019 70.1436 328.704 67.9693C330.43 65.7949 331.868 63.3334 333.019 60.5847H317.298V47.477H350.713C350.878 53.7539 349.891 59.6411 347.754 65.1385C345.617 70.6359 342.596 75.4975 338.691 79.7231C334.787 83.9488 330.245 87.2514 325.066 89.6308C319.888 92.0103 314.298 93.2001 308.297 93.2001Z" fill="#768B9B"/>
<path d="M236.601 91.6V5.44615H251.644V91.6H236.601Z" fill="#768B9B"/>
<path d="M188.519 93.2001C183.751 93.2001 179.169 92.4616 174.771 90.9847C170.414 89.4667 166.592 87.3129 163.304 84.5231C160.016 81.6924 157.652 78.3078 156.214 74.3693L170.332 69.2001C170.907 70.8411 172.079 72.3385 173.846 73.6924C175.613 75.0462 177.771 76.1334 180.32 76.9539C182.868 77.7744 185.601 78.1847 188.519 78.1847C191.52 78.1847 194.314 77.7334 196.904 76.8308C199.534 75.8872 201.651 74.5949 203.254 72.9539C204.857 71.2719 205.658 69.3231 205.658 67.1077C205.658 64.8513 204.816 63.0052 203.131 61.5693C201.445 60.0924 199.288 58.9231 196.657 58.0616C194.027 57.2 191.314 56.5436 188.519 56.0924C182.395 55.1488 176.908 53.6924 172.058 51.7231C167.208 49.7539 163.365 47.0257 160.529 43.5385C157.735 40.0513 156.337 35.5385 156.337 30C156.337 24.7898 157.837 20.2359 160.838 16.3385C163.838 12.441 167.784 9.40515 172.675 7.23079C177.566 5.05643 182.847 3.96925 188.519 3.96925C193.246 3.96925 197.808 4.70772 202.206 6.18464C206.604 7.66156 210.447 9.8154 213.735 12.6462C217.064 15.4769 219.448 18.8821 220.886 22.8616L206.706 27.9693C206.131 26.3282 204.96 24.8308 203.192 23.477C201.425 22.1231 199.267 21.0564 196.719 20.277C194.171 19.4564 191.437 19.0462 188.519 19.0462C185.601 19.0052 182.827 19.477 180.196 20.4616C177.607 21.4052 175.49 22.6975 173.846 24.3385C172.202 25.9795 171.38 27.8667 171.38 30C171.38 32.7488 172.14 34.8206 173.661 36.2154C175.223 37.6103 177.299 38.6359 179.888 39.2923C182.477 39.9077 185.354 40.4821 188.519 41.0154C194.273 41.918 199.596 43.4359 204.487 45.5693C209.378 47.7026 213.303 50.5539 216.262 54.1231C219.222 57.6513 220.701 61.9795 220.701 67.1077C220.701 72.318 219.222 76.8924 216.262 80.8308C213.303 84.7283 209.378 87.7642 204.487 89.9385C199.596 92.1129 194.273 93.2001 188.519 93.2001Z" fill="#768B9B"/>
<path d="M89.7749 91.6V5.44615H143.905V20.4615H104.818V37.9385H135.829V52.9539H104.818V76.5846H143.905V91.6H89.7749Z" fill="#768B9B"/>
<path d="M8.01463 91.6V5.44615H36.6209C42.5805 5.44615 48.1497 6.57436 53.3284 8.83077C58.5482 11.0462 63.1309 14.1436 67.0766 18.1231C71.0634 22.0615 74.1665 26.6359 76.386 31.8462C78.6465 37.0154 79.7768 42.5744 79.7768 48.5231C79.7768 54.4718 78.6465 60.0513 76.386 65.2616C74.1665 70.4308 71.0634 75.0051 67.0766 78.9846C63.1309 82.9231 58.5482 86.0205 53.3284 88.2769C48.1497 90.4923 42.5805 91.6 36.6209 91.6H8.01463ZM23.0576 76.5846H36.6209C40.4432 76.5846 44.0396 75.8667 47.4099 74.4308C50.8212 72.9539 53.8216 70.9436 56.4109 68.4C59.0003 65.8154 61.0348 62.841 62.5144 59.4769C63.9941 56.0718 64.7339 52.4205 64.7339 48.5231C64.7339 44.6257 63.9941 40.9949 62.5144 37.6308C61.0348 34.2667 59.0003 31.2923 56.4109 28.7077C53.8216 26.1231 50.8418 24.1128 47.4715 22.6769C44.1012 21.2 40.4843 20.4615 36.6209 20.4615H23.0576V76.5846Z" fill="#768B9B"/>
</svg>
